{"title":"Aly and Fila - Future Sound of Egypt 152 (DI.FM) 20/09/1020 256 ","uid":5846280,"size":117775174,"categoryP":"audio","categoryS":"music","magnet":"?xt=urn:btih:49e2abeef1dd66692e2ddeaf00459d9bdc9c7ee9&amp;dn=Aly+and+Fila+-+Future+Sound+of+Egypt+152+%28DI.FM%29+20%2F09%2F1020+256+&amp;tr=udp%3A%2F%2Ftracker.openbittorrent.com%3A80&amp;tr=udp%3A%2F%2Fopen.demonii.com%3A1337&amp;tr=udp%3A%2F%2Ftracker.coppersurfer.tk%3A6969&amp;tr=udp%3A%2F%2Fexodus.desync.com%3A6969","seeders":0,"leechers":0,"uploader":"ByggFalken","files":1,"time":1285194059,"description":"PERFORMER &quot;Aly &amp; Fila&quot;\nTITLE &quot;Future Sound of Egypt 152 (2010-09-20) [DI.fm Streamrip]&quot;\nFILE &quot;Aly_and_Fila_-_Future_Sound_Of_Egypt_152.mp3&quot; MP3\n  TRACK 01 AUDIO\n    PERFORMER &quot;Future Sound of Egypt&quot;\n    TITLE &quot;Intro&quot;\n    INDEX 01 00:00:00\n  TRACK 02 AUDIO\n    PERFORMER &quot;Armin van Buuren&quot;\n    TITLE &quot;Coming Home&quot;\n    INDEX 01 01:06:39\n  TRACK 03 AUDIO\n    PERFORMER &quot;ID&quot;\n    TITLE &quot;ID&quot;\n    INDEX 01 08:50:49\n  TRACK 04 AUDIO\n    PERFORMER &quot;ID&quot;\n    TITLE &quot;ID&quot;\n    INDEX 01 14:57:53\n  TRACK 05 AUDIO\n    PERFORMER &quot;Neptune Project vs. Luke Bond&quot;\n    TITLE &quot;Atlantis (Mohamed Ragab Remix)&quot;\n    INDEX 01 18:50:24\n  TRACK 06 AUDIO\n    PERFORMER &quot;Phillipe El Sisi feat. Sue McLaren&quot;\n    TITLE &quot;The Last Hope&quot;\n    INDEX 01 23:46:59\n  TRACK 07 AUDIO\n    PERFORMER &quot;Armin van Buuren feat. Van Velzen&quot;\n    TITLE &quot;Take Me Where I Wanna Go (Extended Instrumental Mix)&quot;\n    INDEX 01 29:39:55\n  TRACK 08 AUDIO\n    PERFORMER &quot;Josh Ferrin&quot;\n    TITLE &quot;Apollo&quot;\n    INDEX 01 34:21:72\n  TRACK 09 AUDIO\n    PERFORMER &quot;Activa&quot;\n    TITLE &quot;The One You Need (Sonic Element Remix)&quot;\n    INDEX 01 40:38:72\n  TRACK 10 AUDIO\n    PERFORMER &quot;ID&quot;\n    TITLE &quot;ID&quot;\n    INDEX 01 46:38:72\n  TRACK 11 AUDIO\n    PERFORMER &quot;Aly &amp; Fila feat. Tiff Lacey&quot;\n    TITLE &quot;Paradise (Club Mix)&quot;\n    INDEX 01 53:58:33\n","torrent":{"xt":"urn:btih:49e2abeef1dd66692e2ddeaf00459d9bdc9c7ee9","amp;dn":"Aly+and+Fila+-+Future+Sound+of+Egypt+152+%28DI.FM%29+20%2F09%2F1020+256+","amp;tr":["udp%3A%2F%2Ftracker.openbittorrent.com%3A80","udp%3A%2F%2Fopen.demonii.com%3A1337","udp%3A%2F%2Ftracker.coppersurfer.tk%3A6969","udp%3A%2F%2Fexodus.desync.com%3A6969"],"infoHash":"49e2abeef1dd66692e2ddeaf00459d9bdc9c7ee9","infoHashBuffer":{"type":"Buffer","data":[73,226,171,238,241,221,102,105,46,45,222,175,0,69,157,155,220,156,126,233]},"announce":[],"urlList":[]}}